<svg version="1.2" xmlns="http://www.w3.org/2000/svg" viewBox="0 0 65 122" width="65" height="122">
    <title>GARDEN LAWN - Sygnet Transparent</title>
    <defs>
        <linearGradient id="g1" x2="1" gradientUnits="userSpaceOnUse"
                        gradientTransform="matrix(20.303,-26.358,27.488,21.173,19.155,116.051)">
            <stop offset="0" stop-color="#1e7701"/>
            <stop offset=".129" stop-color="#74c601"/>
            <stop offset=".278" stop-color="#237c01"/>
            <stop offset=".529" stop-color="#6ec001"/>
            <stop offset=".631" stop-color="#2a8201"/>
            <stop offset="1" stop-color="#7bcc01"/>
        </linearGradient>
        <linearGradient id="g2" x2="1" gradientUnits="userSpaceOnUse"
                        gradientTransform="matrix(37.519,31.345,-25.211,30.177,40.945,56.319)">
            <stop offset="0" stop-color="#007ed4"/>
            <stop offset="1" stop-color="#fefefe"/>
        </linearGradient>
        <linearGradient id="g3" x2="1" gradientUnits="userSpaceOnUse"
                        gradientTransform="matrix(.317,88.494,-81.248,.291,28.86,18.518)">
            <stop offset="0" stop-color="#1e7701"/>
            <stop offset=".129" stop-color="#74c601"/>
            <stop offset=".278" stop-color="#237c01"/>
            <stop offset=".529" stop-color="#6ec001"/>
            <stop offset=".631" stop-color="#2a8201"/>
            <stop offset="1" stop-color="#7bcc01"/>
        </linearGradient>
        <linearGradient id="g4" x2="1" gradientUnits="userSpaceOnUse"
                        gradientTransform="matrix(.317,88.494,-10.704,.038,29.384,18.516)">
            <stop offset="0" stop-color="#1e7701"/>
            <stop offset=".129" stop-color="#74c601"/>
            <stop offset=".278" stop-color="#237c01"/>
            <stop offset=".529" stop-color="#6ec001"/>
            <stop offset=".631" stop-color="#2a8201"/>
            <stop offset="1" stop-color="#7bcc01"/>
        </linearGradient>
        <linearGradient id="g5" x2="1" gradientUnits="userSpaceOnUse"
                        gradientTransform="matrix(.317,88.494,-88.91,.318,32.35,18.505)">
            <stop offset="0" stop-color="#1e7701"/>
            <stop offset=".129" stop-color="#74c601"/>
            <stop offset=".278" stop-color="#237c01"/>
            <stop offset=".529" stop-color="#6ec001"/>
            <stop offset=".631" stop-color="#2a8201"/>
            <stop offset="1" stop-color="#7bcc01"/>
        </linearGradient>
        <linearGradient id="g6" x2="1" gradientUnits="userSpaceOnUse"
                        gradientTransform="matrix(.317,88.494,-86.909,.311,33.413,18.501)">
            <stop offset="0" stop-color="#1e7701"/>
            <stop offset=".129" stop-color="#74c601"/>
            <stop offset=".278" stop-color="#237c01"/>
            <stop offset=".529" stop-color="#6ec001"/>
            <stop offset=".631" stop-color="#2a8201"/>
            <stop offset="1" stop-color="#7bcc01"/>
        </linearGradient>
        <linearGradient id="g7" x2="1" gradientUnits="userSpaceOnUse"
                        gradientTransform="matrix(.317,88.493,-93.646,.335,25.932,18.528)">
            <stop offset="0" stop-color="#1e7701"/>
            <stop offset=".129" stop-color="#74c601"/>
            <stop offset=".278" stop-color="#237c01"/>
            <stop offset=".529" stop-color="#6ec001"/>
            <stop offset=".631" stop-color="#2a8201"/>
            <stop offset="1" stop-color="#7bcc01"/>
        </linearGradient>
        <linearGradient id="g8" x2="1" gradientUnits="userSpaceOnUse"
                        gradientTransform="matrix(.317,88.494,-128.185,.459,43.488,18.465)">
            <stop offset="0" stop-color="#1e7701"/>
            <stop offset=".129" stop-color="#74c601"/>
            <stop offset=".278" stop-color="#237c01"/>
            <stop offset=".529" stop-color="#6ec001"/>
            <stop offset=".631" stop-color="#2a8201"/>
            <stop offset="1" stop-color="#7bcc01"/>
        </linearGradient>
        <linearGradient id="g9" x2="1" gradientUnits="userSpaceOnUse"
                        gradientTransform="matrix(.317,88.494,-126.635,.453,16.249,18.562)">
            <stop offset="0" stop-color="#1e7701"/>
            <stop offset=".129" stop-color="#74c601"/>
            <stop offset=".278" stop-color="#237c01"/>
            <stop offset=".529" stop-color="#6ec001"/>
            <stop offset=".631" stop-color="#2a8201"/>
            <stop offset="1" stop-color="#7bcc01"/>
        </linearGradient>
        <linearGradient id="g10" x2="1" gradientUnits="userSpaceOnUse"
                        gradientTransform="matrix(.317,88.493,-128.185,.459,41.895,18.471)">
            <stop offset="0" stop-color="#1e7701"/>
            <stop offset=".129" stop-color="#74c601"/>
            <stop offset=".278" stop-color="#237c01"/>
            <stop offset=".529" stop-color="#6ec001"/>
            <stop offset=".631" stop-color="#2a8201"/>
            <stop offset="1" stop-color="#7bcc01"/>
        </linearGradient>
        <linearGradient id="g11" x2="1" gradientUnits="userSpaceOnUse"
                        gradientTransform="matrix(.317,88.494,-37.487,.134,29.109,18.517)">
            <stop offset="0" stop-color="#1e7701"/>
            <stop offset=".129" stop-color="#74c601"/>
            <stop offset=".278" stop-color="#237c01"/>
            <stop offset=".529" stop-color="#6ec001"/>
            <stop offset=".631" stop-color="#2a8201"/>
            <stop offset="1" stop-color="#7bcc01"/>
        </linearGradient>
        <linearGradient id="g12" x2="1" gradientUnits="userSpaceOnUse"
                        gradientTransform="matrix(.317,88.494,-194.733,.697,38.361,18.483)">
            <stop offset="0" stop-color="#1e7701"/>
            <stop offset=".129" stop-color="#74c601"/>
            <stop offset=".278" stop-color="#237c01"/>
            <stop offset=".529" stop-color="#6ec001"/>
            <stop offset=".631" stop-color="#2a8201"/>
            <stop offset="1" stop-color="#7bcc01"/>
        </linearGradient>
        <linearGradient id="g13" x2="1" gradientUnits="userSpaceOnUse"
                        gradientTransform="matrix(75.987,75.394,-62.048,62.536,-1.382,58.512)">
            <stop offset="0" stop-color="#1e7701"/>
            <stop offset=".129" stop-color="#74c601"/>
            <stop offset=".278" stop-color="#237c01"/>
            <stop offset=".529" stop-color="#6ec001"/>
            <stop offset=".631" stop-color="#2a8201"/>
            <stop offset="1" stop-color="#7bcc01"/>
        </linearGradient>
        <linearGradient id="g14" x2="1" gradientUnits="userSpaceOnUse"
                        gradientTransform="matrix(9.795,-10.33,10.092,9.57,30.191,91.84)">
            <stop offset="0" stop-color="#007ed4"/>
            <stop offset="1" stop-color="#fefefe"/>
        </linearGradient>
    </defs>
    <style>
        .s0 { fill: url(#g1) }
        .s1 { fill: #007ed4 }
        .s2 { fill: url(#g2) }
        .s3 { fill: url(#g3) }
        .s4 { fill: url(#g4) }
        .s5 { fill: url(#g5) }
        .s6 { fill: url(#g6) }
        .s7 { fill: url(#g7) }
        .s8 { fill: url(#g8) }
        .s9 { fill: url(#g9) }
        .s10 { fill: url(#g10) }
        .s11 { fill: url(#g11) }
        .s12 { fill: url(#g12) }
        .s13 { fill: url(#g13) }
        .s14 { fill: url(#g14) }
    </style>
    <g id="Layer">
        <g id="Layer">
            <g id="Layer">
                <path id="Layer" class="s0"
                      d="m16.2 102.8c0 0 7.5 2.5 9.8 10.4 0 0-1.5-2.7-2.5-3.3 0 0 1.7 2.3 1.8 5h7.8l0.1-0.1q0 0 0 0c0-0.5 0.3-3.9 3.1-5.8 0 0-2.5 1-3.6 3.1 0 0 2.5-6.6 9.5-9.2 0 0-7.9 0.9-11.3 8.6 0 0-0.1-4.2 4.1-7.6 0 0-3.7 1.7-5.6 6.9 0 0-0.8-7.4 1.4-12.7 0 0-3.3 5.2-3 11.1 0 0-1.9-3.2-3.7-4.1 0 0 2 2 2.9 4.8 0 0-3.9-6.2-10.8-7.1z"/>
            </g>
            <path id="Layer" class="s1" d="m41.4 60v6.8h9.3v3.3h6.8v-10.1z"/>
            <path id="Layer" class="s2" d="m56.8 69.4v-8.7h-14.8v5.4h9.4v3.3z"/>
            <path id="Layer" class="s3"
                  d="m50.7 84.4c0 6.4-3.9 24-21.6 30.3-17.7-6.3-21.7-23.9-21.7-30.3v-17.7h25.1q0-3.5 0-6.7h-31.8v24.4c0 11.4 7.3 30.6 27.4 37l1 0.4 1-0.4c20.1-6.4 27.4-25.6 27.4-37v-7.6h-6.8c0 0 0 7.6 0 7.6z"/>
            <g id="Layer">
                <path id="Layer" class="s4"
                      d="m26.5 65.2c0-8.1 0.5-16.1 1-24.2 0.3-4 0.5-8 0.9-12.1q0.5-6 1.2-12.1c0.4 4.1 0.8 8.1 1.1 12.1 0.4 4.1 0.7 8.1 0.9 12.1 0.5 8.1 1 17.7 1 25.8z"/>
            </g>
            <g id="Layer">
                <path id="Layer" class="s5" d="m28.3 38.5l8.2-5.4-5.4 8.3z"/>
            </g>
            <g id="Layer">
                <path id="Layer" class="s6" d="m28.6 53.3l9.8-7.2-6.9 10z"/>
            </g>
            <g id="Layer">
                <path id="Layer" class="s7" d="m28.2 48.4l-7.1-9.3 9.9 6.3z"/>
            </g>
            <g id="Layer">
                <path id="Layer" class="s8"
                      d="m43.7 43.3c0 0-8.4 2.5-9 8.1 0 0 1.6-2.6 3.4-2.3 2.2 0.4 7 1.3 10.1-5.1 0.7-1.6 2.3-4.2 4.2-4.4 0 0-13.1-3-15.4 5.5 0 0 4.3-2.3 6.7-1.8z"/>
            </g>
            <g id="Layer">
                <path id="Layer" class="s9"
                      d="m16.2 36.3c0 0 8.4 2.5 9 8.1 0 0-1.6-2.6-3.4-2.3-2.2 0.4-7 1.3-10.1-5.1-0.7-1.6-2.3-4.2-4.2-4.4 0 0 13.1-3 15.4 5.6 0 0-4.3-2.4-6.7-1.9z"/>
            </g>
            <g id="Layer">
                <path id="Layer" class="s10"
                      d="m42.1 30.2c0 0-8.4 2.5-9 8 0 0 1.6-2.5 3.3-2.2 2.3 0.3 7.1 1.2 10.2-5.2 0.6-1.5 2.2-4.2 4.2-4.4 0 0-13.1-3-15.4 5.6 0 0 4.2-2.3 6.7-1.8z"/>
            </g>
            <path id="Layer" fill-rule="evenodd" class="s1"
                  d="m32.4 97.2c-0.9 0.4-1.8 0.4-2.7 0.3-5.5-0.6-5.2-6.3-2.8-9.3 2.8-3.5 3.4-4.8 3.4-4.8 0.7 2.4 3.2 4.9 4.9 7.2 1.5 1.9 0.1 5.5-2.8 6.6zm-4.3-4c-1.1-0.9-1.1-2.3-0.7-3.8 0 0-2.3 2.8-1 5.1 0.9 1.6 2.3 2.3 3.4 1.6 1.2-0.6-0.6-2-1.7-2.9z"/>
            <g id="Layer">
                <path id="Layer" class="s11"
                      d="m29.8 16.8l-0.2 12.3c0 0-6.8-2.5-6.6-12.7 0.8-7.6 4.9-11.2 3.5-16.2 0 0 14.6 10 6.1 26.2z"/>
            </g>
            <path id="Layer" class="s12"
                  d="m27.4 76.8c0 0-2 9.1-2.6 12q0.4-0.8 0.9-1.5 1-1.3 1.7-2.2 0 0 0 0c1.2-1.7 1.5-2.3 1.5-2.3 0.3-0.6 0.9-0.9 1.5-0.9 0.6 0.1 1.2 0.5 1.3 1.1 0.5 1.5 1.9 3.2 3.2 4.8q0.6 0.7 1.2 1.5l-1.9-5.8h18.2v-6.7z"/>
            <path id="Layer" class="s13"
                  d="m56.8 84.4v-6.9h-28.7c0 0-1.4 5.8-1.9 8.1q0.3-0.4 0.7-0.9l1.2-2.1v0.3q0.2-0.4 0.2-0.4c0.4-0.8 1.3-1.3 2.2-1.3 0.9 0.1 1.6 0.7 1.9 1.6 0.3 1 1 2 1.9 3.2l-1.1-3.1h18.2v1.6c0 6.4-4 24.4-22.1 30.8l-0.2 0.1-0.2-0.1c-18.2-6.4-22.1-24.4-22.1-30.8v-18.4h25.7q0-2.8 0-5.4h-31.1v23.8c0 11.1 7.1 30 26.9 36.3l0.8 0.3 0.8-0.3c19.7-6.3 26.9-25.2 26.9-36.4z"/>
            <path id="Layer" fill-rule="evenodd" class="s14"
                  d="m32.2 96.7c-0.7 0.3-1.6 0.4-2.4 0.3-5.1-0.6-4.8-5.8-2.6-8.6 2.6-3.2 3.1-4.4 3.1-4.4 0.7 2.2 3 4.5 4.5 6.6 1.4 1.8 0.2 5.1-2.6 6.1zm-4.1-3.5c-1.1-0.9-1.2-2.3-0.7-3.8 0 0-2.3 2.8-1 5.1 0.9 1.6 2.3 2.3 3.4 1.6 1.2-0.6-0.6-2-1.7-2.9z"/>
        </g>
    </g>
</svg>
