<svg version="1.2" xmlns="http://www.w3.org/2000/svg" viewBox="0 0 406 122" width="406" height="122">
    <title>GARDEN LAWN &amp; IRRIGATION_060124_smg-01 nowe-svg</title>
    <defs>
        <linearGradient id="g1" x2="1" gradientUnits="userSpaceOnUse"
                        gradientTransform="matrix(20.303,-26.358,27.488,21.173,19.155,116.051)">
            <stop offset="0" stop-color="#1e7701"/>
            <stop offset=".129" stop-color="#74c601"/>
            <stop offset=".278" stop-color="#237c01"/>
            <stop offset=".529" stop-color="#6ec001"/>
            <stop offset=".631" stop-color="#2a8201"/>
            <stop offset="1" stop-color="#7bcc01"/>
        </linearGradient>
        <linearGradient id="g2" x2="1" gradientUnits="userSpaceOnUse"
                        gradientTransform="matrix(37.519,31.345,-25.211,30.177,40.945,56.319)">
            <stop offset="0" stop-color="#007ed4"/>
            <stop offset="1" stop-color="#fefefe"/>
        </linearGradient>
        <linearGradient id="g3" x2="1" gradientUnits="userSpaceOnUse"
                        gradientTransform="matrix(.317,88.494,-81.248,.291,28.86,18.518)">
            <stop offset="0" stop-color="#1e7701"/>
            <stop offset=".129" stop-color="#74c601"/>
            <stop offset=".278" stop-color="#237c01"/>
            <stop offset=".529" stop-color="#6ec001"/>
            <stop offset=".631" stop-color="#2a8201"/>
            <stop offset="1" stop-color="#7bcc01"/>
        </linearGradient>
        <linearGradient id="g4" x2="1" gradientUnits="userSpaceOnUse"
                        gradientTransform="matrix(.317,88.494,-10.704,.038,29.384,18.516)">
            <stop offset="0" stop-color="#1e7701"/>
            <stop offset=".129" stop-color="#74c601"/>
            <stop offset=".278" stop-color="#237c01"/>
            <stop offset=".529" stop-color="#6ec001"/>
            <stop offset=".631" stop-color="#2a8201"/>
            <stop offset="1" stop-color="#7bcc01"/>
        </linearGradient>
        <linearGradient id="g5" x2="1" gradientUnits="userSpaceOnUse"
                        gradientTransform="matrix(.317,88.494,-88.91,.318,32.35,18.505)">
            <stop offset="0" stop-color="#1e7701"/>
            <stop offset=".129" stop-color="#74c601"/>
            <stop offset=".278" stop-color="#237c01"/>
            <stop offset=".529" stop-color="#6ec001"/>
            <stop offset=".631" stop-color="#2a8201"/>
            <stop offset="1" stop-color="#7bcc01"/>
        </linearGradient>
        <linearGradient id="g6" x2="1" gradientUnits="userSpaceOnUse"
                        gradientTransform="matrix(.317,88.494,-86.909,.311,33.413,18.501)">
            <stop offset="0" stop-color="#1e7701"/>
            <stop offset=".129" stop-color="#74c601"/>
            <stop offset=".278" stop-color="#237c01"/>
            <stop offset=".529" stop-color="#6ec001"/>
            <stop offset=".631" stop-color="#2a8201"/>
            <stop offset="1" stop-color="#7bcc01"/>
        </linearGradient>
        <linearGradient id="g7" x2="1" gradientUnits="userSpaceOnUse"
                        gradientTransform="matrix(.317,88.493,-93.646,.335,25.932,18.528)">
            <stop offset="0" stop-color="#1e7701"/>
            <stop offset=".129" stop-color="#74c601"/>
            <stop offset=".278" stop-color="#237c01"/>
            <stop offset=".529" stop-color="#6ec001"/>
            <stop offset=".631" stop-color="#2a8201"/>
            <stop offset="1" stop-color="#7bcc01"/>
        </linearGradient>
        <linearGradient id="g8" x2="1" gradientUnits="userSpaceOnUse"
                        gradientTransform="matrix(.317,88.494,-128.185,.459,43.488,18.465)">
            <stop offset="0" stop-color="#1e7701"/>
            <stop offset=".129" stop-color="#74c601"/>
            <stop offset=".278" stop-color="#237c01"/>
            <stop offset=".529" stop-color="#6ec001"/>
            <stop offset=".631" stop-color="#2a8201"/>
            <stop offset="1" stop-color="#7bcc01"/>
        </linearGradient>
        <linearGradient id="g9" x2="1" gradientUnits="userSpaceOnUse"
                        gradientTransform="matrix(.317,88.494,-126.635,.453,16.249,18.562)">
            <stop offset="0" stop-color="#1e7701"/>
            <stop offset=".129" stop-color="#74c601"/>
            <stop offset=".278" stop-color="#237c01"/>
            <stop offset=".529" stop-color="#6ec001"/>
            <stop offset=".631" stop-color="#2a8201"/>
            <stop offset="1" stop-color="#7bcc01"/>
        </linearGradient>
        <linearGradient id="g10" x2="1" gradientUnits="userSpaceOnUse"
                        gradientTransform="matrix(.317,88.493,-128.185,.459,41.895,18.471)">
            <stop offset="0" stop-color="#1e7701"/>
            <stop offset=".129" stop-color="#74c601"/>
            <stop offset=".278" stop-color="#237c01"/>
            <stop offset=".529" stop-color="#6ec001"/>
            <stop offset=".631" stop-color="#2a8201"/>
            <stop offset="1" stop-color="#7bcc01"/>
        </linearGradient>
        <linearGradient id="g11" x2="1" gradientUnits="userSpaceOnUse"
                        gradientTransform="matrix(.317,88.494,-37.487,.134,29.109,18.517)">
            <stop offset="0" stop-color="#1e7701"/>
            <stop offset=".129" stop-color="#74c601"/>
            <stop offset=".278" stop-color="#237c01"/>
            <stop offset=".529" stop-color="#6ec001"/>
            <stop offset=".631" stop-color="#2a8201"/>
            <stop offset="1" stop-color="#7bcc01"/>
        </linearGradient>
        <linearGradient id="g12" x2="1" gradientUnits="userSpaceOnUse"
                        gradientTransform="matrix(.317,88.494,-194.733,.697,38.361,18.483)">
            <stop offset="0" stop-color="#1e7701"/>
            <stop offset=".129" stop-color="#74c601"/>
            <stop offset=".278" stop-color="#237c01"/>
            <stop offset=".529" stop-color="#6ec001"/>
            <stop offset=".631" stop-color="#2a8201"/>
            <stop offset="1" stop-color="#7bcc01"/>
        </linearGradient>
        <linearGradient id="g13" x2="1" gradientUnits="userSpaceOnUse"
                        gradientTransform="matrix(75.987,75.394,-62.048,62.536,-1.382,58.512)">
            <stop offset="0" stop-color="#1e7701"/>
            <stop offset=".129" stop-color="#74c601"/>
            <stop offset=".278" stop-color="#237c01"/>
            <stop offset=".529" stop-color="#6ec001"/>
            <stop offset=".631" stop-color="#2a8201"/>
            <stop offset="1" stop-color="#7bcc01"/>
        </linearGradient>
        <linearGradient id="g14" x2="1" gradientUnits="userSpaceOnUse"
                        gradientTransform="matrix(9.795,-10.33,10.092,9.57,30.191,91.84)">
            <stop offset="0" stop-color="#007ed4"/>
            <stop offset="1" stop-color="#fefefe"/>
        </linearGradient>
        <linearGradient id="g15" x2="1" gradientUnits="userSpaceOnUse"
                        gradientTransform="matrix(0,-46.436,62.672,0,98.167,90.521)">
            <stop offset="0" stop-color="#1e7701"/>
            <stop offset=".129" stop-color="#74c601"/>
            <stop offset=".278" stop-color="#237c01"/>
            <stop offset=".529" stop-color="#6ec001"/>
            <stop offset=".631" stop-color="#2a8201"/>
            <stop offset="1" stop-color="#7bcc01"/>
        </linearGradient>
        <linearGradient id="g16" x2="1" gradientUnits="userSpaceOnUse"
                        gradientTransform="matrix(0,-46.436,69.612,0,156.266,90.521)">
            <stop offset="0" stop-color="#1e7701"/>
            <stop offset=".129" stop-color="#74c601"/>
            <stop offset=".278" stop-color="#237c01"/>
            <stop offset=".529" stop-color="#6ec001"/>
            <stop offset=".631" stop-color="#2a8201"/>
            <stop offset="1" stop-color="#7bcc01"/>
        </linearGradient>
        <linearGradient id="g17" x2="1" gradientUnits="userSpaceOnUse"
                        gradientTransform="matrix(0,-46.436,58.676,0,214.242,90.521)">
            <stop offset="0" stop-color="#1e7701"/>
            <stop offset=".129" stop-color="#74c601"/>
            <stop offset=".278" stop-color="#237c01"/>
            <stop offset=".529" stop-color="#6ec001"/>
            <stop offset=".631" stop-color="#2a8201"/>
            <stop offset="1" stop-color="#7bcc01"/>
        </linearGradient>
        <linearGradient id="g18" x2="1" gradientUnits="userSpaceOnUse"
                        gradientTransform="matrix(0,-46.436,61.779,0,272.02,90.521)">
            <stop offset="0" stop-color="#1e7701"/>
            <stop offset=".129" stop-color="#74c601"/>
            <stop offset=".278" stop-color="#237c01"/>
            <stop offset=".529" stop-color="#6ec001"/>
            <stop offset=".631" stop-color="#2a8201"/>
            <stop offset="1" stop-color="#7bcc01"/>
        </linearGradient>
        <linearGradient id="g19" x2="1" gradientUnits="userSpaceOnUse"
                        gradientTransform="matrix(0,-46.436,52.912,0,327.393,90.521)">
            <stop offset="0" stop-color="#1e7701"/>
            <stop offset=".129" stop-color="#74c601"/>
            <stop offset=".278" stop-color="#237c01"/>
            <stop offset=".529" stop-color="#6ec001"/>
            <stop offset=".631" stop-color="#2a8201"/>
            <stop offset="1" stop-color="#7bcc01"/>
        </linearGradient>
        <linearGradient id="g20" x2="1" gradientUnits="userSpaceOnUse"
                        gradientTransform="matrix(0,-46.436,58.691,0,380.87,90.521)">
            <stop offset="0" stop-color="#1e7701"/>
            <stop offset=".129" stop-color="#74c601"/>
            <stop offset=".278" stop-color="#237c01"/>
            <stop offset=".529" stop-color="#6ec001"/>
            <stop offset=".631" stop-color="#2a8201"/>
            <stop offset="1" stop-color="#7bcc01"/>
        </linearGradient>
        <linearGradient id="g21" x2="1" gradientUnits="userSpaceOnUse"
                        gradientTransform="matrix(0,-45.37,98.471,0,272.02,97.104)">
            <stop offset="0" stop-color="#74c601" stop-opacity="1"/>
            <stop offset="1" stop-color="#399001" stop-opacity="0"/>
        </linearGradient>
        <linearGradient id="g22" x2="1" gradientUnits="userSpaceOnUse"
                        gradientTransform="matrix(0,-45.37,82.888,0,327.186,97.104)">
            <stop offset="0" stop-color="#74c601" stop-opacity="1"/>
            <stop offset="1" stop-color="#399001" stop-opacity="0"/>
        </linearGradient>
        <linearGradient id="g23" x2="1" gradientUnits="userSpaceOnUse"
                        gradientTransform="matrix(0,-45.37,67.705,0,374.457,97.104)">
            <stop offset="0" stop-color="#74c601" stop-opacity="1"/>
            <stop offset="1" stop-color="#399001" stop-opacity="0"/>
        </linearGradient>
        <linearGradient id="g24" x2="1" gradientUnits="userSpaceOnUse"
                        gradientTransform="matrix(0,-45.37,17.041,0,399.965,97.104)">
            <stop offset="0" stop-color="#74c601" stop-opacity="1"/>
            <stop offset="1" stop-color="#399001" stop-opacity="0"/>
        </linearGradient>
        <linearGradient id="g25" x2="1" gradientUnits="userSpaceOnUse"
                        gradientTransform="matrix(0,-45.37,75.257,0,156.265,97.104)">
            <stop offset="0" stop-color="#74c601" stop-opacity="1"/>
            <stop offset="1" stop-color="#399001" stop-opacity="0"/>
        </linearGradient>
        <linearGradient id="g26" x2="1" gradientUnits="userSpaceOnUse"
                        gradientTransform="matrix(0,-45.37,95.434,0,97.039,97.104)">
            <stop offset="0" stop-color="#74c601" stop-opacity="1"/>
            <stop offset="1" stop-color="#399001" stop-opacity="0"/>
        </linearGradient>
        <linearGradient id="g27" x2="1" gradientUnits="userSpaceOnUse"
                        gradientTransform="matrix(0,-45.37,129.955,0,112.627,97.104)">
            <stop offset="0" stop-color="#74c601" stop-opacity="1"/>
            <stop offset="1" stop-color="#399001" stop-opacity="0"/>
        </linearGradient>
        <linearGradient id="g28" x2="1" gradientUnits="userSpaceOnUse"
                        gradientTransform="matrix(0,-45.37,92.957,0,214.15,97.104)">
            <stop offset="0" stop-color="#74c601" stop-opacity="1"/>
            <stop offset="1" stop-color="#399001" stop-opacity="0"/>
        </linearGradient>
        <linearGradient id="g29" x2="1" gradientUnits="userSpaceOnUse"
                        gradientTransform="matrix(0,-9.766,22.191,0,293.044,109.176)">
            <stop offset="0" stop-color="#007ed4" stop-opacity="1"/>
            <stop offset="1" stop-color="#ffffff" stop-opacity="0"/>
        </linearGradient>
        <linearGradient id="g30" x2="1" gradientUnits="userSpaceOnUse"
                        gradientTransform="matrix(0,-9.766,11.302,0,316.786,109.176)">
            <stop offset="0" stop-color="#007ed4" stop-opacity="1"/>
            <stop offset="1" stop-color="#ffffff" stop-opacity="0"/>
        </linearGradient>
        <linearGradient id="g31" x2="1" gradientUnits="userSpaceOnUse"
                        gradientTransform="matrix(0,-9.766,20.598,0,259,109.176)">
            <stop offset="0" stop-color="#007ed4" stop-opacity="1"/>
            <stop offset="1" stop-color="#ffffff" stop-opacity="0"/>
        </linearGradient>
        <linearGradient id="g32" x2="1" gradientUnits="userSpaceOnUse"
                        gradientTransform="matrix(0,-9.766,20.598,0,236.214,109.176)">
            <stop offset="0" stop-color="#007ed4" stop-opacity="1"/>
            <stop offset="1" stop-color="#ffffff" stop-opacity="0"/>
        </linearGradient>
        <linearGradient id="g33" x2="1" gradientUnits="userSpaceOnUse"
                        gradientTransform="matrix(0,-9.766,22.687,0,336.824,109.176)">
            <stop offset="0" stop-color="#007ed4" stop-opacity="1"/>
            <stop offset="1" stop-color="#ffffff" stop-opacity="0"/>
        </linearGradient>
        <linearGradient id="g34" x2="1" gradientUnits="userSpaceOnUse"
                        gradientTransform="matrix(0,-9.766,4.251,0,275.87,109.176)">
            <stop offset="0" stop-color="#007ed4" stop-opacity="1"/>
            <stop offset="1" stop-color="#ffffff" stop-opacity="0"/>
        </linearGradient>
        <linearGradient id="g35" x2="1" gradientUnits="userSpaceOnUse"
                        gradientTransform="matrix(0,-9.766,4.251,0,403.254,109.176)">
            <stop offset="0" stop-color="#007ed4" stop-opacity="1"/>
            <stop offset="1" stop-color="#ffffff" stop-opacity="0"/>
        </linearGradient>
        <linearGradient id="g36" x2="1" gradientUnits="userSpaceOnUse"
                        gradientTransform="matrix(0,-9.766,11.08,0,391.688,109.176)">
            <stop offset="0" stop-color="#007ed4" stop-opacity="1"/>
            <stop offset="1" stop-color="#ffffff" stop-opacity="0"/>
        </linearGradient>
        <linearGradient id="g37" x2="1" gradientUnits="userSpaceOnUse"
                        gradientTransform="matrix(0,-9.766,4.251,0,353.121,109.176)">
            <stop offset="0" stop-color="#007ed4" stop-opacity="1"/>
            <stop offset="1" stop-color="#ffffff" stop-opacity="0"/>
        </linearGradient>
        <linearGradient id="g38" x2="1" gradientUnits="userSpaceOnUse"
                        gradientTransform="matrix(0,-9.766,24.389,0,371.154,109.176)">
            <stop offset="0" stop-color="#007ed4" stop-opacity="1"/>
            <stop offset="1" stop-color="#ffffff" stop-opacity="0"/>
        </linearGradient>
        <linearGradient id="g39" x2="1" gradientUnits="userSpaceOnUse"
                        gradientTransform="matrix(0,-9.766,4.251,0,163.586,109.176)">
            <stop offset="0" stop-color="#007ed4" stop-opacity="1"/>
            <stop offset="1" stop-color="#ffffff" stop-opacity="0"/>
        </linearGradient>
        <linearGradient id="g40" x2="1" gradientUnits="userSpaceOnUse"
                        gradientTransform="matrix(0,-9.766,7.074,0,129.741,109.176)">
            <stop offset="0" stop-color="#007ed4" stop-opacity="1"/>
            <stop offset="1" stop-color="#ffffff" stop-opacity="0"/>
        </linearGradient>
        <linearGradient id="g41" x2="1" gradientUnits="userSpaceOnUse"
                        gradientTransform="matrix(0,-9.766,8.134,0,115.043,109.176)">
            <stop offset="0" stop-color="#007ed4" stop-opacity="1"/>
            <stop offset="1" stop-color="#ffffff" stop-opacity="0"/>
        </linearGradient>
        <linearGradient id="g42" x2="1" gradientUnits="userSpaceOnUse"
                        gradientTransform="matrix(0,-9.766,7.032,0,124.022,109.176)">
            <stop offset="0" stop-color="#007ed4" stop-opacity="1"/>
            <stop offset="1" stop-color="#ffffff" stop-opacity="0"/>
        </linearGradient>
        <linearGradient id="g43" x2="1" gradientUnits="userSpaceOnUse"
                        gradientTransform="matrix(0,-9.766,11.302,0,100.169,109.176)">
            <stop offset="0" stop-color="#007ed4" stop-opacity="1"/>
            <stop offset="1" stop-color="#ffffff" stop-opacity="0"/>
        </linearGradient>
        <linearGradient id="g44" x2="1" gradientUnits="userSpaceOnUse"
                        gradientTransform="matrix(0,-9.766,4.251,0,218.934,109.176)">
            <stop offset="0" stop-color="#007ed4" stop-opacity="1"/>
            <stop offset="1" stop-color="#ffffff" stop-opacity="0"/>
        </linearGradient>
        <linearGradient id="g45" x2="1" gradientUnits="userSpaceOnUse"
                        gradientTransform="matrix(0,-9.766,13.697,0,188.949,109.176)">
            <stop offset="0" stop-color="#007ed4" stop-opacity="1"/>
            <stop offset="1" stop-color="#ffffff" stop-opacity="0"/>
        </linearGradient>
        <linearGradient id="g46" x2="1" gradientUnits="userSpaceOnUse"
                        gradientTransform="matrix(0,-9.766,4.233,0,74.15,109.176)">
            <stop offset="0" stop-color="#007ed4" stop-opacity="1"/>
            <stop offset="1" stop-color="#ffffff" stop-opacity="0"/>
        </linearGradient>
        <linearGradient id="g47" x2="1" gradientUnits="userSpaceOnUse"
                        gradientTransform="matrix(0,-9.766,11.094,0,152.019,109.176)">
            <stop offset="0" stop-color="#007ed4" stop-opacity="1"/>
            <stop offset="1" stop-color="#ffffff" stop-opacity="0"/>
        </linearGradient>
        <linearGradient id="g48" x2="1" gradientUnits="userSpaceOnUse"
                        gradientTransform="matrix(0,-9.766,8.148,0,138.729,109.176)">
            <stop offset="0" stop-color="#007ed4" stop-opacity="1"/>
            <stop offset="1" stop-color="#ffffff" stop-opacity="0"/>
        </linearGradient>
    </defs>
    <style>
        .s0 { fill: url(#g1) }
        .s1 { fill: #007ed4 }
        .s2 { fill: url(#g2) }
        .s3 { fill: url(#g3) }
        .s4 { fill: url(#g4) }
        .s5 { fill: url(#g5) }
        .s6 { fill: url(#g6) }
        .s7 { fill: url(#g7) }
        .s8 { fill: url(#g8) }
        .s9 { fill: url(#g9) }
        .s10 { fill: url(#g10) }
        .s11 { fill: url(#g11) }
        .s12 { fill: url(#g12) }
        .s13 { fill: url(#g13) }
        .s14 { fill: url(#g14) }
        .s15 { fill: url(#g15) }
        .s16 { fill: url(#g16) }
        .s17 { fill: url(#g17) }
        .s18 { fill: url(#g18) }
        .s19 { fill: url(#g19) }
        .s20 { fill: url(#g20) }
        .s21 { fill: url(#g21) }
        .s22 { fill: url(#g22) }
        .s23 { fill: url(#g23) }
        .s24 { fill: url(#g24) }
        .s25 { fill: url(#g25) }
        .s26 { fill: url(#g26) }
        .s27 { fill: url(#g27) }
        .s28 { fill: url(#g28) }
        .s29 { fill: url(#g29) }
        .s30 { fill: url(#g30) }
        .s31 { fill: url(#g31) }
        .s32 { fill: url(#g32) }
        .s33 { fill: url(#g33) }
        .s34 { fill: url(#g34) }
        .s35 { fill: url(#g35) }
        .s36 { fill: url(#g36) }
        .s37 { fill: url(#g37) }
        .s38 { fill: url(#g38) }
        .s39 { fill: url(#g39) }
        .s40 { fill: url(#g40) }
        .s41 { fill: url(#g41) }
        .s42 { fill: url(#g42) }
        .s43 { fill: url(#g43) }
        .s44 { fill: url(#g44) }
        .s45 { fill: url(#g45) }
        .s46 { fill: url(#g46) }
        .s47 { fill: url(#g47) }
        .s48 { fill: url(#g48) }
    </style>
    <g id="Layer">
        <g id="Layer">
            <g id="Layer">
                <path id="Layer" class="s0"
                      d="m16.2 102.8c0 0 7.5 2.5 9.8 10.4 0 0-1.5-2.7-2.5-3.3 0 0 1.7 2.3 1.8 5h7.8l0.1-0.1q0 0 0 0c0-0.5 0.3-3.9 3.1-5.8 0 0-2.5 1-3.6 3.1 0 0 2.5-6.6 9.5-9.2 0 0-7.9 0.9-11.3 8.6 0 0-0.1-4.2 4.1-7.6 0 0-3.7 1.7-5.6 6.9 0 0-0.8-7.4 1.4-12.7 0 0-3.3 5.2-3 11.1 0 0-1.9-3.2-3.7-4.1 0 0 2 2 2.9 4.8 0 0-3.9-6.2-10.8-7.1z"/>
            </g>
            <path id="Layer" class="s1" d="m41.4 60v6.8h9.3v3.3h6.8v-10.1z"/>
            <path id="Layer" class="s2" d="m56.8 69.4v-8.7h-14.8v5.4h9.4v3.3z"/>
            <path id="Layer" class="s3"
                  d="m50.7 84.4c0 6.4-3.9 24-21.6 30.3-17.7-6.3-21.7-23.9-21.7-30.3v-17.7h25.1q0-3.5 0-6.7h-31.8v24.4c0 11.4 7.3 30.6 27.4 37l1 0.4 1-0.4c20.1-6.4 27.4-25.6 27.4-37v-7.6h-6.8c0 0 0 7.6 0 7.6z"/>
            <g id="Layer">
                <path id="Layer" class="s4"
                      d="m26.5 65.2c0-8.1 0.5-16.1 1-24.2 0.3-4 0.5-8 0.9-12.1q0.5-6 1.2-12.1c0.4 4.1 0.8 8.1 1.1 12.1 0.4 4.1 0.7 8.1 0.9 12.1 0.5 8.1 1 17.7 1 25.8z"/>
            </g>
            <g id="Layer">
                <path id="Layer" class="s5" d="m28.3 38.5l8.2-5.4-5.4 8.3z"/>
            </g>
            <g id="Layer">
                <path id="Layer" class="s6" d="m28.6 53.3l9.8-7.2-6.9 10z"/>
            </g>
            <g id="Layer">
                <path id="Layer" class="s7" d="m28.2 48.4l-7.1-9.3 9.9 6.3z"/>
            </g>
            <g id="Layer">
                <path id="Layer" class="s8"
                      d="m43.7 43.3c0 0-8.4 2.5-9 8.1 0 0 1.6-2.6 3.4-2.3 2.2 0.4 7 1.3 10.1-5.1 0.7-1.6 2.3-4.2 4.2-4.4 0 0-13.1-3-15.4 5.5 0 0 4.3-2.3 6.7-1.8z"/>
            </g>
            <g id="Layer">
                <path id="Layer" class="s9"
                      d="m16.2 36.3c0 0 8.4 2.5 9 8.1 0 0-1.6-2.6-3.4-2.3-2.2 0.4-7 1.3-10.1-5.1-0.7-1.6-2.3-4.2-4.2-4.4 0 0 13.1-3 15.4 5.6 0 0-4.3-2.4-6.7-1.9z"/>
            </g>
            <g id="Layer">
                <path id="Layer" class="s10"
                      d="m42.1 30.2c0 0-8.4 2.5-9 8 0 0 1.6-2.5 3.3-2.2 2.3 0.3 7.1 1.2 10.2-5.2 0.6-1.5 2.2-4.2 4.2-4.4 0 0-13.1-3-15.4 5.6 0 0 4.2-2.3 6.7-1.8z"/>
            </g>
            <path id="Layer" fill-rule="evenodd" class="s1"
                  d="m32.4 97.2c-0.9 0.4-1.8 0.4-2.7 0.3-5.5-0.6-5.2-6.3-2.8-9.3 2.8-3.5 3.4-4.8 3.4-4.8 0.7 2.4 3.2 4.9 4.9 7.2 1.5 1.9 0.1 5.5-2.8 6.6zm-4.3-4c-1.1-0.9-1.1-2.3-0.7-3.8 0 0-2.3 2.8-1 5.1 0.9 1.6 2.3 2.3 3.4 1.6 1.2-0.6-0.6-2-1.7-2.9z"/>
            <g id="Layer">
                <path id="Layer" class="s11"
                      d="m29.8 16.8l-0.2 12.3c0 0-6.8-2.5-6.6-12.7 0.8-7.6 4.9-11.2 3.5-16.2 0 0 14.6 10 6.1 26.2z"/>
            </g>
            <path id="Layer" class="s12"
                  d="m27.4 76.8c0 0-2 9.1-2.6 12q0.4-0.8 0.9-1.5 1-1.3 1.7-2.2 0 0 0 0c1.2-1.7 1.5-2.3 1.5-2.3 0.3-0.6 0.9-0.9 1.5-0.9 0.6 0.1 1.2 0.5 1.3 1.1 0.5 1.5 1.9 3.2 3.2 4.8q0.6 0.7 1.2 1.5l-1.9-5.8h18.2v-6.7z"/>
            <path id="Layer" class="s13"
                  d="m56.8 84.4v-6.9h-28.7c0 0-1.4 5.8-1.9 8.1q0.3-0.4 0.7-0.9l1.2-2.1v0.3q0.2-0.4 0.2-0.4c0.4-0.8 1.3-1.3 2.2-1.3 0.9 0.1 1.6 0.7 1.9 1.6 0.3 1 1 2 1.9 3.2l-1.1-3.1h18.2v1.6c0 6.4-4 24.4-22.1 30.8l-0.2 0.1-0.2-0.1c-18.2-6.4-22.1-24.4-22.1-30.8v-18.4h25.7q0-2.8 0-5.4h-31.1v23.8c0 11.1 7.1 30 26.9 36.3l0.8 0.3 0.8-0.3c19.7-6.3 26.9-25.2 26.9-36.4z"/>
            <path id="Layer" fill-rule="evenodd" class="s14"
                  d="m32.2 96.7c-0.7 0.3-1.6 0.4-2.4 0.3-5.1-0.6-4.8-5.8-2.6-8.6 2.6-3.2 3.1-4.4 3.1-4.4 0.7 2.2 3 4.5 4.5 6.6 1.4 1.8 0.2 5.1-2.6 6.1zm-4.1-3.5c-1.1-0.9-1.2-2.3-0.7-3.8 0 0-2.3 2.8-1 5.1 0.9 1.6 2.3 2.3 3.4 1.6 1.2-0.6-0.6-2-1.7-2.9z"/>
        </g>
        <g id="Layer">
            <path id="Layer" class="s15"
                  d="m72.1 66.5q0-5.2 3.9-9 3.9-3.9 10.4-3.9h36l-2.8 8.5h-30.7c-1.7 0-3.2 0.5-4.4 1.6q-1.8 1.6-1.8 4.2v9.9q0 2.6 1.8 4.2 1.8 1.5 4.6 1.6h20.2q2.6-0.1 3.4-1 1-0.9 1-3.2v-2.7h-13.1l2.5-7.7h21.1v12.1q0 4.6-3.6 7.8-3.6 3.3-8.8 3.4h-25.4q-6.4 0-10.4-3.9c-2.6-2.6-3.9-5.6-3.9-9z"/>
            <path id="Layer" fill-rule="evenodd" class="s16"
                  d="m142.5 86.6l-3.3 5.7h-11.9l23.1-38.7h11.7l23.1 38.7h-12.2l-3.3-5.7zm22.9-7.1l-9.4-15.8-9.3 15.8z"/>
            <path id="Layer" class="s17"
                  d="m225.5 53.6q5.8 0 9.4 3.6 3.6 3.7 3.6 8.6 0 4.9-3.6 8.6-3.6 3.7-9.3 3.7h-2.5l15.6 14.2h-14.5l-22.2-22h21.8q1.8 0.1 3-1.2 1.2-1.2 1.2-2.8 0-1.7-1.2-2.9-1.1-1.2-3-1.2h-23.4v30.1h-10.6v-38.7h35.7z"/>
            <path id="Layer" fill-rule="evenodd" class="s18"
                  d="m246.3 53.6h37.1q6.7 0 10.5 3.9 3.8 3.7 3.8 8.9v13.1q0 5-3.8 8.9-3.9 3.9-10.5 3.9h-37.1zm10.6 29.9h23.8q2.9 0 4.6-1.6 1.9-1.5 1.9-4.2v-9.8q0-2.7-1.8-4.2c-1.2-1.1-2.8-1.6-4.7-1.6h-23.8z"/>
            <path id="Layer" class="s19"
                  d="m347 68.9l-2.7 7.9h-28.4v6.9h33.5l-2.9 8.6h-41.1v-38.7h44l-2.9 8.6h-30.6v6.7c0 0 31.1 0 31.1 0z"/>
            <path id="Layer" class="s20" d="m405.3 92.3h-10.7l-27.5-25.2v25.2h-10.7v-38.7h10.7l27.5 25.3v-25.3h10.7z"/>
        </g>
        <g id="Layer">
            <path id="Layer" class="s21"
                  d="m286.1 62.9c1.4 1.2 2.1 2.9 2.1 5.1v9.4h8.5v-11c0-3.2-1.2-5.9-3.6-8.2-2.3-2.3-5.6-3.5-9.7-3.5h-36v22.7h8.4v-16.4h24.9q3.3 0.1 5.4 1.9z"/>
            <path id="Layer" class="s22" d="m306.4 77.4h8.4v-1.7h28.8l1.9-5.7h-30.7v-8.8h31l2.1-6.5h-41.5z"/>
            <path id="Layer" class="s23" d="m391.4 77.4l-24.7-22.7h-9.2v22.7h8.5v-12.7l14 12.7z"/>
            <path id="Layer" class="s24" d="m395.7 54.7h8.5v22.7h-8.5z"/>
            <path id="Layer" class="s25" d="m151 54.7l-13.6 22.7h9.4l9.3-15.8 9.4 15.8h9.6l-13.6-22.7z"/>
            <path id="Layer" class="s26"
                  d="m118.8 61l2.1-6.3h-34.5c-4 0-7.3 1.2-9.7 3.5-2.4 2.4-3.6 5.1-3.6 8.3v10.9h8.5v-9.5q0-3.1 2.1-5c1.4-1.2 3.2-1.9 5.2-1.9z"/>
            <path id="Layer" class="s27" d="m123.2 77.4v-7.3h-19.3l-1.8 5.5h12.6v1.8z"/>
            <path id="Layer" class="s28"
                  d="m234.1 58c-2.2-2.2-5-3.3-8.6-3.3h-34.6v22.7h8.5v-16.2h24.4q2.3 0 3.8 1.5 1.5 1.5 1.5 3.6 0 2.1-1.5 3.6-1.6 1.5-3.9 1.5h-19.1l6.1 6h10l-0.4-0.4h5.3c3.5 0 6.3-1.1 8.5-3.3 2.2-2.3 3.3-4.9 3.3-7.9 0-3.1-1.1-5.6-3.3-7.8z"/>
        </g>
        <g id="Layer">
            <path id="Layer" class="s1" d="m72.1 117.9v-20.9h4.1v17.3h10.6v3.6z"/>
            <path id="Layer" fill-rule="evenodd" class="s1"
                  d="m90.3 117.9l8.2-20.9h3.3l8.2 20.9h-4.3l-1.9-5.2h-7.3l-1.9 5.2zm9.9-16.5l-3 8.4h5.9z"/>
            <path id="Layer" class="s1"
                  d="m120.8 97.1h3.7l2.4 6.9 2.3-6.9h3.8l-3.6 9.5 2.7 6.7 5.9-16.3h4.4l-8.5 20.9h-3.4l-3.6-8.8-3.6 8.8h-3.5l-8.4-20.9h4.4l5.9 16.3 2.6-6.7z"/>
            <path id="Layer" class="s1" d="m151.6 104.5v13.4h-4.1v-20.9h3.2l10.9 13.7v-13.7h4v20.9h-3.3z"/>
            <path id="Layer" fill-rule="evenodd" class="s1"
                  d="m196.5 117.9l-1.7-1.7c-1.7 1.3-3.7 2-5.8 2-4.3 0-7.1-2.9-7.1-6.2 0-2.6 1.7-4.4 3.6-5.8-1.6-1.8-2.2-3-2.2-4.5 0-3 2.4-5 5.7-5 2.9 0 5.6 1.6 5.6 4.7 0 2.2-1.5 3.9-3.6 5.3l4 4.3c0.6-1.3 1-2.8 1-4.5h3.2c0 2.7-0.7 5-1.9 6.9l4.4 4.5c0 0-5.2 0-5.2 0zm-3.8-4l-4.8-5.1c-1.3 1-2.2 1.9-2.2 3.2 0 1.7 1.5 3.1 3.7 3.1 1.2 0 2.3-0.4 3.3-1.2zm-4.1-9.7c1.5-1 2.4-1.7 2.4-2.8 0-1-0.8-1.8-2-1.8-1.3 0-2.1 0.9-2.1 2 0 0.7 0.4 1.2 1.7 2.6z"/>
            <path id="Layer" class="s1" d="m216.9 117.9v-20.9h4.1v20.9z"/>
            <path id="Layer" fill-rule="evenodd" class="s1"
                  d="m228.3 117.9v-20.9h9.2c3.9 0 6.7 3.5 6.7 6.9 0 2.7-1.5 5.2-3.8 6.1l4.9 7.9h-4.6l-4.4-7h-4v7zm9.2-10.6c1.5 0 2.6-1.5 2.6-3.4 0-1.9-1.4-3.3-2.8-3.3h-4.9v6.7z"/>
            <path id="Layer" fill-rule="evenodd" class="s1"
                  d="m251.1 117.9v-20.9h9.2c3.9 0 6.6 3.5 6.6 6.9 0 2.7-1.4 5.2-3.7 6.1l4.9 7.9h-4.6l-4.4-7h-4v7zm9.2-10.6c1.5 0 2.6-1.5 2.6-3.4 0-1.9-1.4-3.3-2.8-3.3h-4.9v6.7z"/>
            <path id="Layer" class="s1" d="m273.8 117.9v-20.9h4.1v20.9z"/>
            <path id="Layer" class="s1"
                  d="m299.2 115.6c-1.6 1.7-3.4 2.5-5.6 2.5-5.3 0-9.6-5.2-9.6-10.8 0-5.7 4.3-10.5 9.9-10.5 3.8 0 6.6 1.8 8 4.6l-3.1 2.2c-1-2-2.9-3.2-5-3.2-3.4 0-5.7 3.3-5.7 7 0 4 2.5 7.1 5.9 7.1q2.9 0 5.2-2.9v-1.5h-4.2v-2.9h7.6v10.7h-3.4c0 0 0-2.3 0-2.3z"/>
            <path id="Layer" fill-rule="evenodd" class="s1"
                  d="m306.9 117.9l8.2-20.9h3.3l8.3 20.9h-4.4l-1.9-5.2h-7.3l-1.9 5.2zm9.9-16.5l-3 8.4h5.9z"/>
            <path id="Layer" class="s1" d="m345.5 100.6h-6.6v17.3h-4.1v-17.3h-6.7v-3.6h17.4c0 0 0 3.6 0 3.6z"/>
            <path id="Layer" class="s1" d="m351.1 117.9v-20.9h4v20.9z"/>
            <path id="Layer" fill-rule="evenodd" class="s1"
                  d="m361.3 107.4c-0.1-5.5 4.2-10.6 9.9-10.6 6 0 9.9 5.4 9.9 10.7 0 5.5-4.2 10.6-10 10.6-5.9 0-9.9-5.3-9.9-10.7zm10 7.1c3.7 0 5.8-3.6 5.8-7.1 0-3.6-2.2-6.9-5.8-6.9-3.8 0-5.9 3.5-5.9 6.9 0 3.7 2.2 7.1 5.9 7.1z"/>
            <path id="Layer" class="s1" d="m391.2 104.5v13.4h-4v-20.9h3.1l10.9 13.7v-13.7h4.1v20.9h-3.3z"/>
        </g>
        <g id="Layer">
            <path id="Layer" class="s29"
                  d="m293.8 99.9c2.2 0 4.1 1.2 5.2 3l2.2-1.6c-1.4-2.5-4-3.9-7.3-3.9-4.3 0-7.9 2.9-9 7.2h3.1c1-2.9 3.1-4.7 5.8-4.7z"/>
            <path id="Layer" class="s30" d="m315.5 97.5l-2.8 7.1h2.4l1.7-4.7 1.6 4.7h2.5l-2.8-7.1z"/>
            <path id="Layer" class="s31"
                  d="m263.4 103.9q0 0.3-0.1 0.7h3.1q0-0.4 0.1-0.7c0-3-2.6-6.4-6.2-6.4h-8.7v7.1h3v-4.5h5.4c1.8 0 3.4 1.7 3.4 3.8z"/>
            <path id="Layer" class="s32"
                  d="m240.6 103.9q0 0.3-0.1 0.7h3.1q0.1-0.4 0.1-0.7c0-3-2.6-6.4-6.2-6.4h-8.7v7.1h3v-4.5h5.5c1.8 0 3.3 1.7 3.3 3.8z"/>
            <path id="Layer" class="s33" d="m345 97.5h-16.4v2.6h6.7v4.5h3.1v-4.5h6.6z"/>
            <path id="Layer" class="s34" d="m274.3 97.5h3.1v7.1h-3.1z"/>
            <path id="Layer" class="s35" d="m401.7 97.5h3.1v7.1h-3.1z"/>
            <path id="Layer" class="s36" d="m387.7 97.5v7.1h3v-1.5l1.2 1.5h3.8l-5.6-7.1z"/>
            <path id="Layer" class="s37" d="m351.6 97.5h3v7.1h-3z"/>
            <path id="Layer" class="s38"
                  d="m371.2 100c2.7 0 4.9 1.7 5.8 4.6h3.2c-1.1-3.6-4.2-7.2-9-7.2-4.2 0-7.8 2.9-9 7.2h3.1c1-2.9 3.2-4.6 5.9-4.6z"/>
            <path id="Layer" class="s39" d="m162.1 97.5h3v7.1h-3z"/>
            <path id="Layer" class="s40" d="m129.6 97.6l-2.4 7h2.5l2.6-7z"/>
            <path id="Layer" class="s41" d="m112.1 97.5l2.9 7.1h3l-2.6-7.1z"/>
            <path id="Layer" class="s42" d="m126.5 104.6l-2.3-7h-2.7l2.6 7z"/>
            <path id="Layer" class="s43" d="m98.9 97.5l-2.8 7.1h2.4l1.7-4.7 1.6 4.7h2.4l-2.7-7.1z"/>
            <path id="Layer" class="s44" d="m217.4 97.5h3.1v7.1h-3.1z"/>
            <path id="Layer" class="s45"
                  d="m189 97.2c-3 0-5.2 1.9-5.2 4.5 0 1 0.3 1.8 1 2.9h3.5l-0.1-0.1c-1.3-1.4-1.8-2-1.8-2.9 0-1.4 1.1-2.4 2.6-2.4 1.5 0 2.5 0.9 2.5 2.2 0 1.4-1.1 2.2-2.6 3.2h3.9q1.3-1.5 1.3-3.2c0-2.9-2.6-4.2-5.1-4.2z"/>
            <path id="Layer" class="s46" d="m72.6 97.5h3.1v7.1h-3.1z"/>
            <path id="Layer" class="s47" d="m148 97.5v7.1h3.1v-1.5l1.2 1.5h3.7l-5.6-7.1z"/>
            <path id="Layer" class="s48" d="m138.3 97.5l-2.5 7.1h3l2.9-7.1z"/>
        </g>
    </g>
</svg>
