<svg width="850" height="283" viewBox="0 0 850 283" fill="none" xmlns="http://www.w3.org/2000/svg">
    <g clip-path="url(#clip0_1172_20957)">
        <mask id="mask0_1172_20957" style="mask-type:luminance" maskUnits="userSpaceOnUse" x="0" y="0" width="850" height="283">
            <path d="M850 0H0V283H850V0Z" fill="white"/>
        </mask>
        <g mask="url(#mask0_1172_20957)">
            <path d="M708.66 0H141.73C63.4547 0 0 63.4547 0 141.73C0 220.005 63.4547 283.46 141.73 283.46H708.66C786.935 283.46 850.39 220.005 850.39 141.73C850.39 63.4547 786.935 0 708.66 0Z" fill="white"/>
            <path d="M233.36 116.65C236.182 113.086 239.709 110.141 243.72 108C247.912 105.815 252.583 104.708 257.31 104.78C261.304 104.673 265.266 105.516 268.87 107.24C272.032 108.813 274.775 111.117 276.87 113.96C279.04 116.966 280.612 120.361 281.5 123.96C282.506 127.935 283.01 132.02 283 136.12C283.04 142.135 282.115 148.118 280.26 153.84C278.585 159.126 276.003 164.08 272.63 168.48C269.493 172.572 265.531 175.959 261 178.42C256.441 180.871 251.336 182.127 246.16 182.07C241.413 182.2 236.705 181.188 232.43 179.12C228.317 176.886 224.917 173.538 222.62 169.46L214.62 207H198.62L219.77 107H235.32L233.36 116.65ZM226.49 152.23C226.49 157.27 227.893 161.333 230.7 164.42C233.507 167.507 237.707 169.033 243.3 169C246.743 169.057 250.128 168.109 253.04 166.27C255.958 164.38 258.421 161.867 260.25 158.91C262.293 155.646 263.805 152.078 264.73 148.34C265.772 144.289 266.293 140.122 266.28 135.94C266.28 130.06 264.97 125.577 262.35 122.49C261.111 120.992 259.546 119.798 257.775 118.997C256.004 118.196 254.073 117.811 252.13 117.87C249.317 117.855 246.529 118.402 243.93 119.48C241.358 120.564 238.991 122.079 236.93 123.96C234.807 125.903 233.011 128.176 231.61 130.69C230.146 133.292 229.085 136.101 228.46 139.02C228.46 139.02 226.46 147.47 226.46 152.19" fill="#072653"/>
            <path d="M308.76 181.65C302.32 181.65 297.183 179.943 293.35 176.53C289.517 173.117 287.603 168.19 287.61 161.75C287.61 156.53 288.73 152.237 290.97 148.87C293.241 145.482 296.339 142.729 299.97 140.87C304.022 138.808 308.371 137.391 312.86 136.67C317.866 135.82 322.925 135.309 328 135.14L341.31 134.58L341.73 132.34C342.001 130.768 342.141 129.176 342.15 127.58C342.15 124.21 341.15 121.58 339.21 119.73C337.27 117.88 334.02 116.93 329.54 116.93C324.5 116.93 320.67 117.597 318.05 118.93C315.44 120.29 313.43 122.93 312.05 126.85L297.62 125.3C299.96 117.833 303.883 112.537 309.39 109.41C314.897 106.283 322.18 104.717 331.24 104.71C339.74 104.71 346.23 106.65 350.71 110.53C355.19 114.41 357.48 119.85 357.58 126.85C357.573 128.208 357.479 129.564 357.3 130.91C357.11 132.31 356.88 133.76 356.6 135.25L347 179.82H331.87L333.87 170.3C330.714 173.503 327.134 176.258 323.23 178.49C319.49 180.59 314.68 181.643 308.8 181.65M338.92 145.23L328.13 145.79C324.175 145.978 320.24 146.47 316.36 147.26C313.691 147.767 311.133 148.738 308.8 150.13C307.067 151.181 305.677 152.713 304.8 154.54C303.966 156.428 303.56 158.477 303.61 160.54C303.591 161.696 303.805 162.844 304.237 163.915C304.67 164.987 305.314 165.961 306.13 166.78C307.81 168.513 310.377 169.377 313.83 169.37C316.641 169.386 319.435 168.936 322.1 168.04C324.629 167.194 327.013 165.967 329.17 164.4C331.263 162.861 333.064 160.961 334.49 158.79C335.948 156.553 336.966 154.058 337.49 151.44L338.92 145.23Z" fill="#072653"/>
            <path d="M366.8 107H384.45L393.69 159.52L422.83 107H441L394.07 184.32C391.83 188.047 389.753 191.337 387.84 194.19C386.142 196.79 384.127 199.169 381.84 201.27C379.798 203.093 377.448 204.539 374.9 205.54C372.017 206.584 368.965 207.083 365.9 207.01C363.76 207.03 361.624 206.819 359.53 206.38C357.591 205.955 355.691 205.37 353.85 204.63L358.05 192.58C359.198 192.99 360.366 193.34 361.55 193.63C362.928 193.967 364.342 194.131 365.76 194.12C368.234 194.234 370.659 193.409 372.55 191.81C374.857 189.518 376.814 186.901 378.36 184.04L382.57 176.89L366.8 107Z" fill="#072653"/>
            <path d="M177.94 156.57C177.76 157.51 177.59 158.32 177.45 159.02C177.309 159.735 177.239 160.462 177.24 161.19C177.24 163.897 177.907 165.767 179.24 166.8C180.869 167.905 182.815 168.446 184.78 168.34C186.35 168.347 187.918 168.23 189.47 167.99C190.823 167.78 192.159 167.476 193.47 167.08L195.85 178.98C191.104 180.521 186.14 181.281 181.15 181.23C174.703 181.23 169.753 179.78 166.3 176.88C162.847 173.98 161.12 169.593 161.12 163.72C161.121 161.118 161.457 158.526 162.12 156.01L169.82 119.59H135L137.66 106.99H172.48L176.68 87.37H192.68L188.45 107H208L205.34 119.6H185.79L177.94 156.57Z" fill="#072653"/>
            <path d="M478.61 132.58L493 114.32H478.9V110.97H498.16V114.08L483.77 132.34H498.88L498.36 135.69H478.61V132.58Z" fill="#30D366" stroke="#30D366" stroke-miterlimit="10"/>
            <path d="M518.91 132.3C517.96 133.43 516.811 134.375 515.52 135.09C513.944 135.919 512.179 136.322 510.4 136.26C509.248 136.272 508.1 136.121 506.99 135.81C506.01 135.537 505.098 135.064 504.31 134.42C503.555 133.793 502.956 132.998 502.56 132.1C502.127 131.072 501.916 129.965 501.94 128.85C501.874 127.402 502.251 125.968 503.02 124.74C503.747 123.677 504.735 122.82 505.89 122.25C507.153 121.627 508.501 121.192 509.89 120.96C511.422 120.704 512.968 120.547 514.52 120.49L518.78 120.34V119.34C518.78 117.23 518.33 115.72 517.44 114.79C516.55 113.86 515.1 113.41 513.09 113.41C511.573 113.303 510.058 113.651 508.74 114.41C507.818 115.052 507.169 116.015 506.92 117.11L503.14 116.68C503.29 115.673 503.655 114.711 504.208 113.857C504.762 113.003 505.492 112.278 506.35 111.73C508.458 110.592 510.838 110.056 513.23 110.18C514.762 110.141 516.289 110.357 517.75 110.82C518.88 111.19 519.908 111.82 520.75 112.66C521.538 113.51 522.104 114.54 522.4 115.66C522.75 116.964 522.918 118.31 522.9 119.66V135.72H518.9L518.91 132.3ZM518.82 123.3L514.82 123.44C513.405 123.468 511.995 123.628 510.61 123.92C509.674 124.093 508.777 124.432 507.96 124.92C507.347 125.302 506.862 125.859 506.57 126.52C506.29 127.219 506.154 127.967 506.17 128.72C506.14 129.27 506.224 129.821 506.417 130.337C506.609 130.853 506.907 131.324 507.29 131.72C508.333 132.563 509.665 132.965 511 132.84C513.07 132.964 515.111 132.315 516.73 131.02C517.423 130.392 517.968 129.617 518.324 128.752C518.68 127.887 518.839 126.954 518.79 126.02L518.82 123.3Z" fill="#30D366" stroke="#30D366" stroke-miterlimit="10"/>
            <path d="M528.94 111H533.09V126.59C533.09 128.88 533.47 130.51 534.22 131.46C534.675 131.97 535.243 132.366 535.878 132.616C536.514 132.866 537.2 132.964 537.88 132.9C539.739 132.888 541.525 132.173 542.88 130.9C543.612 130.275 544.225 129.523 544.69 128.68C545.136 127.745 545.348 126.715 545.31 125.68V111H549.47V135.72H545.36V131.89C544.329 133.33 542.99 134.522 541.44 135.38C540.041 136.117 538.481 136.495 536.9 136.48C534.09 136.48 532.06 135.73 530.8 134.21C529.54 132.69 528.92 130.43 528.92 127.4L528.94 111Z" fill="#30D366" stroke="#30D366" stroke-miterlimit="10"/>
            <path d="M557.4 114.27H553.53V111H557.4V108.85C557.37 107.675 557.574 106.506 558 105.41C558.359 104.51 558.912 103.701 559.62 103.04C560.315 102.42 561.128 101.947 562.01 101.65C562.946 101.346 563.925 101.194 564.91 101.2C565.612 101.198 566.313 101.238 567.01 101.32C567.722 101.409 568.424 101.559 569.11 101.77L568.45 105.03C567.975 104.876 567.486 104.769 566.99 104.71C566.52 104.71 566.07 104.64 565.62 104.64C564.595 104.614 563.589 104.927 562.76 105.53C562.318 105.933 561.979 106.435 561.771 106.995C561.562 107.555 561.49 108.157 561.56 108.75V111H567.82V114.3H561.56V135.72H557.4V114.27Z" fill="#30D366" stroke="#30D366" stroke-miterlimit="10"/>
            <path d="M587.2 132.3C586.25 133.43 585.101 134.375 583.81 135.09C582.234 135.919 580.469 136.322 578.69 136.26C577.535 136.271 576.383 136.12 575.27 135.81C574.293 135.537 573.384 135.064 572.6 134.42C571.842 133.795 571.242 133.001 570.85 132.1C570.417 131.072 570.206 129.965 570.23 128.85C570.166 127.404 570.539 125.972 571.3 124.74C572.031 123.681 573.019 122.825 574.17 122.25C575.434 121.628 576.781 121.193 578.17 120.96C579.705 120.705 581.255 120.548 582.81 120.49L587.07 120.34V119.34C587.07 117.23 586.62 115.72 585.73 114.79C584.84 113.86 583.39 113.41 581.38 113.41C579.863 113.303 578.348 113.651 577.03 114.41C576.108 115.052 575.459 116.015 575.21 117.11L571.43 116.68C571.58 115.673 571.944 114.711 572.498 113.857C573.052 113.003 573.782 112.278 574.64 111.73C576.747 110.589 579.128 110.053 581.52 110.18C583.052 110.141 584.579 110.358 586.04 110.82C587.169 111.192 588.196 111.822 589.04 112.66C589.827 113.51 590.394 114.54 590.69 115.66C591.039 116.964 591.208 118.31 591.19 119.66V135.72H587.19L587.2 132.3ZM587.11 123.3L583.11 123.44C581.695 123.468 580.285 123.628 578.9 123.92C577.964 124.093 577.067 124.432 576.25 124.92C575.634 125.299 575.149 125.857 574.86 126.52C574.577 127.218 574.437 127.967 574.45 128.72C574.421 129.271 574.507 129.822 574.701 130.338C574.896 130.854 575.195 131.325 575.58 131.72C576.62 132.562 577.948 132.963 579.28 132.84C581.353 132.965 583.398 132.317 585.02 131.02C585.713 130.392 586.257 129.617 586.614 128.752C586.97 127.887 587.129 126.954 587.08 126.02L587.11 123.3Z" fill="#30D366" stroke="#30D366" stroke-miterlimit="10"/>
            <path d="M597.41 111H601.53V114.78C602.558 113.308 603.932 112.109 605.53 111.29C606.978 110.594 608.564 110.235 610.17 110.24C612.97 110.24 615.05 111.003 616.41 112.53C617.77 114.057 618.437 116.303 618.41 119.27V135.72H614.25V120.06C614.25 117.76 613.837 116.14 613.01 115.2C612.512 114.701 611.912 114.316 611.251 114.073C610.589 113.829 609.883 113.733 609.18 113.79C608.243 113.793 607.313 113.955 606.43 114.27C605.522 114.605 604.694 115.126 604 115.8C603.273 116.42 602.664 117.165 602.2 118C601.75 118.934 601.534 119.964 601.57 121V135.63H597.41V111Z" fill="#30D366" stroke="#30D366" stroke-miterlimit="10"/>
            <path d="M645.79 128.76C645.48 130.974 644.344 132.989 642.61 134.4C640.91 135.77 638.46 136.4 635.28 136.4C631.513 136.4 628.627 135.263 626.62 132.99C624.613 130.717 623.613 127.537 623.62 123.45C623.59 121.519 623.88 119.596 624.48 117.76C624.982 116.217 625.807 114.799 626.9 113.6C627.93 112.484 629.193 111.61 630.6 111.04C633.693 109.853 637.117 109.853 640.21 111.04C641.513 111.603 642.667 112.462 643.58 113.55C644.5 114.67 645.181 115.967 645.58 117.36C646.027 118.927 646.245 120.55 646.23 122.18V124.29H627.82C627.806 125.462 627.975 126.63 628.32 127.75C628.619 128.758 629.104 129.701 629.75 130.53C630.377 131.308 631.17 131.936 632.07 132.37C633.075 132.836 634.173 133.065 635.28 133.04C636.882 133.171 638.481 132.758 639.82 131.87C640.814 131.055 641.516 129.939 641.82 128.69L645.79 128.76ZM642 121.25C642.013 120.171 641.882 119.095 641.61 118.05C641.39 117.156 640.985 116.317 640.42 115.59C639.862 114.89 639.141 114.337 638.32 113.98C637.334 113.576 636.275 113.382 635.21 113.41C634.26 113.354 633.309 113.503 632.421 113.848C631.534 114.193 630.732 114.726 630.07 115.41C628.717 117.058 627.95 119.109 627.89 121.24L642 121.25Z" fill="#30D366" stroke="#30D366" stroke-miterlimit="10"/>
            <path d="M481 154.53H485.11V158.06C486.044 156.742 487.26 155.649 488.67 154.86C490.14 154.101 491.776 153.723 493.43 153.76C495.023 153.738 496.6 154.08 498.04 154.76C499.337 155.379 500.468 156.298 501.34 157.44C502.268 158.655 502.948 160.042 503.34 161.52C503.788 163.23 504.007 164.992 503.99 166.76C504.013 168.628 503.753 170.489 503.22 172.28C502.774 173.806 502.025 175.228 501.02 176.46C500.084 177.598 498.901 178.508 497.56 179.12C496.188 179.718 494.71 180.034 493.214 180.05C491.718 180.065 490.234 179.78 488.85 179.21C487.382 178.563 486.119 177.525 485.2 176.21V188.55H481V154.53ZM485.11 167.58C485.079 168.964 485.265 170.344 485.66 171.67C485.973 172.692 486.482 173.644 487.16 174.47C487.783 175.185 488.573 175.735 489.46 176.07C490.396 176.41 491.385 176.579 492.38 176.57C493.352 176.577 494.316 176.397 495.22 176.04C496.112 175.682 496.895 175.095 497.49 174.34C498.186 173.449 498.699 172.43 499 171.34C499.393 169.86 499.579 168.332 499.55 166.8C499.588 165.255 499.385 163.713 498.95 162.23C498.633 161.157 498.106 160.158 497.4 159.29C496.811 158.596 496.063 158.054 495.22 157.71C494.421 157.393 493.569 157.23 492.71 157.23C491.683 157.222 490.665 157.413 489.71 157.79C488.793 158.143 487.966 158.697 487.29 159.41C486.568 160.192 486.022 161.119 485.69 162.13C485.29 163.36 485.097 164.647 485.12 165.94L485.11 167.58Z" fill="#30D366" stroke="#30D366" stroke-miterlimit="10"/>
            <path d="M511.73 163.75L507.38 166.81V163.18L511.73 160.12V145.11H515.89V157.54L520.24 154.43V158.11L515.89 161.17V179.25H511.73V163.75Z" fill="#30D366" stroke="#30D366" stroke-miterlimit="10"/>
            <path d="M539.46 175.85C538.507 176.983 537.355 177.932 536.06 178.65C534.488 179.479 532.726 179.882 530.95 179.82C529.794 179.833 528.642 179.678 527.53 179.36C526.551 179.091 525.638 178.621 524.85 177.98C524.097 177.353 523.501 176.558 523.11 175.66C522.673 174.634 522.462 173.525 522.49 172.41C522.421 170.963 522.794 169.53 523.56 168.3C524.289 167.239 525.277 166.382 526.43 165.81C527.694 165.188 529.041 164.753 530.43 164.52C531.965 164.261 533.515 164.101 535.07 164.04L539.32 163.9V162.9C539.32 160.8 538.88 159.28 537.98 158.36C537.385 157.848 536.694 157.462 535.946 157.223C535.199 156.984 534.411 156.898 533.63 156.97C532.113 156.866 530.599 157.214 529.28 157.97C528.366 158.617 527.721 159.578 527.47 160.67L523.69 160.24C523.833 159.234 524.193 158.27 524.746 157.417C525.298 156.564 526.03 155.842 526.89 155.3C529 154.158 531.384 153.619 533.78 153.74C535.312 153.704 536.84 153.924 538.3 154.39C539.433 154.755 540.462 155.386 541.3 156.23C542.098 157.072 542.666 158.105 542.95 159.23C543.304 160.533 543.472 161.88 543.45 163.23V179.29H539.45L539.46 175.85ZM539.36 166.85L535.36 167C533.949 167.029 532.543 167.187 531.16 167.47C530.223 167.649 529.323 167.987 528.5 168.47C527.892 168.855 527.411 169.412 527.12 170.07C526.837 170.768 526.697 171.517 526.71 172.27C526.684 172.82 526.77 173.369 526.963 173.885C527.155 174.4 527.45 174.872 527.83 175.27C528.872 176.116 530.204 176.518 531.54 176.39C533.611 176.517 535.656 175.872 537.28 174.58C537.971 173.951 538.514 173.176 538.868 172.311C539.223 171.446 539.381 170.513 539.33 169.58L539.36 166.85Z" fill="#30D366" stroke="#30D366" stroke-miterlimit="10"/>
            <path d="M550.92 157.83H547.09V154.53H550.92V147.78H555.08V154.53H561.63V157.83H555.08V172.31C555.028 173.345 555.312 174.369 555.89 175.23C556.183 175.603 556.564 175.899 556.998 176.09C557.432 176.282 557.907 176.364 558.38 176.33C558.996 176.335 559.612 176.288 560.22 176.19C560.716 176.097 561.204 175.967 561.68 175.8L562.39 179.01C561.71 179.241 561.015 179.425 560.31 179.56C559.435 179.711 558.548 179.781 557.66 179.77C556.498 179.814 555.341 179.603 554.27 179.15C553.431 178.764 552.718 178.151 552.21 177.38C551.691 176.553 551.35 175.627 551.21 174.66C551.027 173.519 550.94 172.365 550.95 171.21L550.92 157.83Z" fill="#30D366" stroke="#30D366" stroke-miterlimit="10"/>
            <path d="M566.24 154.53H570.35V158.3C571.378 156.828 572.752 155.629 574.35 154.81C575.798 154.114 577.384 153.755 578.99 153.76C581.79 153.76 583.87 154.527 585.23 156.06C586.58 157.59 587.23 159.83 587.23 162.8V179.24H583.07V163.61C583.07 161.32 582.65 159.7 581.83 158.76C581.332 158.261 580.732 157.876 580.071 157.633C579.409 157.389 578.703 157.293 578 157.35C577.063 157.353 576.133 157.515 575.25 157.83C574.327 158.153 573.487 158.675 572.79 159.36C572.054 159.984 571.438 160.736 570.97 161.58C570.528 162.516 570.315 163.545 570.35 164.58V179.2H566.19L566.24 154.53Z" fill="#30D366" stroke="#30D366" stroke-miterlimit="10"/>
            <path d="M604.34 180C602.63 180.029 600.931 179.719 599.34 179.09C597.918 178.522 596.643 177.64 595.61 176.51C594.55 175.32 593.752 173.919 593.27 172.4C592.71 170.638 592.437 168.798 592.46 166.95C592.431 165.097 592.722 163.254 593.32 161.5C593.838 159.96 594.668 158.543 595.76 157.34C596.817 156.186 598.114 155.278 599.56 154.68C601.128 154.043 602.808 153.727 604.5 153.75C606.211 153.718 607.91 154.028 609.5 154.66C610.927 155.242 612.208 156.134 613.25 157.27C614.318 158.448 615.126 159.838 615.62 161.35C616.72 164.903 616.72 168.706 615.62 172.26C615.12 173.794 614.306 175.207 613.23 176.41C612.182 177.574 610.882 178.483 609.43 179.07C607.841 179.706 606.142 180.022 604.43 180M604.43 176.56C605.617 176.593 606.796 176.347 607.87 175.84C608.812 175.377 609.626 174.691 610.24 173.84C610.888 172.911 611.35 171.865 611.6 170.76C611.899 169.465 612.044 168.139 612.03 166.81C612.043 165.507 611.898 164.208 611.6 162.94C611.349 161.86 610.886 160.841 610.24 159.94C609.624 159.091 608.811 158.404 607.87 157.94C606.796 157.433 605.617 157.187 604.43 157.22C603.249 157.185 602.077 157.432 601.01 157.94C600.082 158.41 599.279 159.096 598.67 159.94C598.02 160.838 597.557 161.859 597.31 162.94C596.723 165.52 596.723 168.2 597.31 170.78C597.556 171.875 598.007 172.913 598.64 173.84C599.245 174.692 600.052 175.379 600.99 175.84C602.064 176.347 603.243 176.593 604.43 176.56Z" fill="#30D366"/>
            <path d="M604.34 180C602.63 180.029 600.931 179.719 599.34 179.09C597.918 178.522 596.643 177.64 595.61 176.51C594.55 175.32 593.752 173.919 593.27 172.4C592.71 170.638 592.437 168.798 592.46 166.95C592.431 165.097 592.722 163.254 593.32 161.5C593.838 159.96 594.668 158.543 595.76 157.34C596.817 156.186 598.114 155.278 599.56 154.68C601.128 154.043 602.808 153.727 604.5 153.75C606.211 153.718 607.91 154.028 609.5 154.66C610.927 155.242 612.208 156.134 613.25 157.27C614.318 158.448 615.126 159.838 615.62 161.35C616.72 164.903 616.72 168.706 615.62 172.26C615.12 173.794 614.306 175.207 613.23 176.41C612.182 177.574 610.882 178.483 609.43 179.07C607.841 179.706 606.142 180.022 604.43 180M604.43 176.56C605.617 176.593 606.796 176.347 607.87 175.84C608.812 175.377 609.626 174.691 610.24 173.84C610.888 172.911 611.35 171.865 611.6 170.76C611.899 169.465 612.044 168.139 612.03 166.81C612.043 165.507 611.898 164.208 611.6 162.94C611.349 161.86 610.886 160.841 610.24 159.94C609.624 159.091 608.811 158.404 607.87 157.94C606.796 157.433 605.617 157.187 604.43 157.22C603.249 157.185 602.077 157.432 601.01 157.94C600.082 158.41 599.279 159.096 598.67 159.94C598.02 160.838 597.557 161.859 597.31 162.94C596.723 165.52 596.723 168.2 597.31 170.78C597.556 171.875 598.007 172.913 598.64 173.84C599.245 174.692 600.052 175.38 600.99 175.84C602.064 176.347 603.243 176.593 604.43 176.56Z" stroke="#30D366" stroke-miterlimit="10"/>
            <path d="M624.37 172C624.439 172.727 624.671 173.429 625.048 174.054C625.425 174.679 625.939 175.211 626.55 175.61C628.022 176.354 629.663 176.699 631.31 176.61C633.41 176.61 634.9 176.26 635.78 175.54C636.204 175.199 636.543 174.763 636.77 174.269C636.997 173.774 637.107 173.234 637.09 172.69C637.095 172.231 637.038 171.774 636.92 171.33C636.81 170.898 636.589 170.502 636.28 170.18C635.894 169.804 635.439 169.505 634.94 169.3C634.219 169.001 633.463 168.792 632.69 168.68L629.54 168.2C628.292 168.015 627.061 167.727 625.86 167.34C624.898 167.036 623.993 166.577 623.18 165.98C622.468 165.441 621.901 164.733 621.53 163.92C621.147 162.996 620.966 162 621 161C620.981 159.934 621.236 158.88 621.74 157.94C622.243 157.035 622.948 156.259 623.8 155.67C624.744 155.017 625.792 154.53 626.9 154.23C628.172 153.889 629.483 153.721 630.8 153.73C632.307 153.696 633.812 153.875 635.27 154.26C636.333 154.544 637.331 155.029 638.21 155.69C638.952 156.267 639.556 157.001 639.98 157.84C640.407 158.678 640.742 159.56 640.98 160.47L637.2 161.1C637.005 160.485 636.747 159.892 636.43 159.33C636.155 158.823 635.765 158.388 635.29 158.06C634.758 157.699 634.165 157.438 633.54 157.29C632.7 157.102 631.841 157.014 630.98 157.03C630.017 157.008 629.056 157.112 628.12 157.34C627.456 157.502 626.829 157.787 626.27 158.18C625.845 158.481 625.501 158.883 625.27 159.35C625.082 159.778 624.986 160.242 624.99 160.71C624.981 161.171 625.045 161.63 625.18 162.07C625.319 162.482 625.568 162.848 625.9 163.13C626.328 163.474 626.811 163.741 627.33 163.92C628.092 164.178 628.875 164.368 629.67 164.49L633.26 165.06C636.16 165.54 638.24 166.37 639.5 167.55C640.45 168.637 641.073 169.971 641.297 171.397C641.522 172.823 641.339 174.283 640.77 175.61C640.332 176.508 639.692 177.291 638.9 177.9C637.969 178.602 636.914 179.121 635.79 179.43C634.374 179.821 632.909 180.007 631.44 179.98C630.035 179.992 628.633 179.847 627.26 179.55C626.051 179.294 624.895 178.834 623.84 178.19C622.857 177.574 622.038 176.73 621.45 175.73C620.823 174.584 620.481 173.305 620.45 172H624.37ZM633.17 144.17H638.29L631.83 151H627.72L633.17 144.17Z" fill="#30D366" stroke="#30D366" stroke-miterlimit="10"/>
            <path d="M667.76 170.88C667.492 173.421 666.342 175.789 664.51 177.57C662.763 179.19 660.293 180 657.1 180C655.389 180.034 653.689 179.724 652.1 179.09C650.698 178.525 649.452 177.629 648.47 176.48C647.462 175.276 646.713 173.877 646.27 172.37C645.757 170.61 645.507 168.783 645.53 166.95C645.508 165.115 645.782 163.288 646.34 161.54C646.834 160.012 647.634 158.6 648.69 157.39C649.721 156.233 650.994 155.318 652.42 154.71C653.998 154.03 655.702 153.69 657.42 153.71C658.614 153.59 659.82 153.706 660.969 154.052C662.117 154.398 663.187 154.967 664.116 155.727C665.044 156.487 665.814 157.422 666.381 158.48C666.948 159.537 667.301 160.696 667.42 161.89L663.26 162.65C663.109 161.9 662.895 161.164 662.62 160.45C662.358 159.803 661.975 159.212 661.49 158.71C661 158.205 660.407 157.813 659.75 157.56C658.959 157.271 658.122 157.132 657.28 157.15C656.121 157.116 654.973 157.374 653.94 157.9C653.022 158.381 652.241 159.086 651.67 159.95C651.054 160.892 650.616 161.939 650.38 163.04C650.096 164.276 649.959 165.542 649.97 166.81C649.965 168.08 650.092 169.347 650.35 170.59C650.572 171.684 650.993 172.727 651.59 173.67C652.158 174.537 652.931 175.252 653.84 175.75C654.89 176.289 656.06 176.554 657.24 176.52C658.05 176.585 658.865 176.483 659.634 176.219C660.403 175.956 661.11 175.538 661.71 174.99C662.746 173.827 663.405 172.376 663.6 170.83L667.76 170.88Z" fill="#30D366" stroke="#30D366" stroke-miterlimit="10"/>
            <path d="M672.6 145.11H677V149.94H672.6V145.11ZM672.74 154.53H676.9V179.25H672.74V154.53Z" fill="#30D366" stroke="#30D366" stroke-miterlimit="10"/>
        </g>
    </g>
    <defs>
        <clipPath id="clip0_1172_20957">
            <rect width="850" height="283" fill="white"/>
        </clipPath>
    </defs>
</svg>
