<svg width="307" height="96" viewBox="0 0 307 96" fill="none" xmlns="http://www.w3.org/2000/svg">
<path d="M132.697 16.7347C131.539 16.5514 130.382 16.4018 129.224 16.2957C128.061 16.1848 127.048 16.1317 126.18 16.1317C121.544 16.1317 117.328 16.5514 113.522 17.3907C109.721 18.2349 106.552 19.1321 104.02 20.0824V74.7409H117.164V28.7508C117.816 28.5337 118.954 28.278 120.584 27.9838C122.215 27.6944 123.754 27.5448 125.201 27.5448C127.738 27.5448 129.962 27.7474 131.882 28.1478C133.802 28.5482 135.307 28.9341 136.392 29.3007C136.392 29.3007 137.256 27.3085 137.897 24.4287C138.635 21.1051 138.674 18.1047 138.674 18.1047C138.022 17.8876 137.154 17.6512 136.069 17.3907C134.979 17.1351 133.855 16.918 132.697 16.7347Z" fill="#EC0000"/>
<path d="M237.215 63.8816C235.372 64.3929 233.25 64.6486 230.862 64.6486C227.384 64.6486 224.924 63.6597 223.477 61.6819C222.025 59.709 221.301 56.4143 221.301 51.8076V28.4267H238.865C238.865 28.4267 239.902 25.3732 240.254 23.1542C240.601 20.9594 241.006 17.3416 241.006 17.3416H221.301V0L208.156 2.19483V51.9137C208.156 55.7197 208.484 59.106 209.135 62.0678C209.787 65.0345 210.906 67.5573 212.502 69.6412C214.094 71.7299 216.251 73.3218 218.966 74.4168C221.682 75.5166 225.064 76.0617 229.125 76.0617C232.454 76.0617 235.353 75.7144 237.813 75.0197C240.278 74.3251 241.981 73.6498 243.505 72.9889C243.505 72.9889 244.272 70.6301 244.653 66.9833C244.976 63.9057 244.943 61.3201 244.943 61.3201C243.857 61.7591 239.062 63.3703 237.215 63.8816Z" fill="#EC0000"/>
<path d="M292.798 17.3363C291.138 24.215 289.3 31.3301 287.279 38.6864C285.263 46.0379 283.097 52.9745 280.791 59.4867C279.412 56.3416 278.027 52.936 276.648 49.2747C275.268 45.6182 273.961 41.9425 272.721 38.2475C271.486 34.5524 270.343 30.9105 269.286 27.3264C268.23 23.7423 267.342 20.4091 266.614 17.3363H252.601C255.582 28.021 258.983 38.1172 262.803 47.6298C266.619 57.1423 270.603 65.9264 274.752 73.9725C273.295 77.4119 271.602 79.954 269.672 81.6038C267.748 83.2487 265.07 84.0687 261.655 84.0687C259.108 84.0687 256.527 83.5574 253.913 82.5348C253.826 83.3066 253.484 86.2588 253.18 88.1545C252.866 90.1467 252.003 92.7902 251.824 93.3256C252.828 93.7839 254.226 94.2084 256.031 94.6088C258.023 95.0477 260.034 95.2648 262.065 95.2648C265.109 95.2648 267.791 94.9175 270.111 94.2229C272.431 93.5282 274.535 92.4139 276.421 90.8751C278.302 89.3412 280.01 87.402 281.529 85.0576C283.054 82.7181 284.539 79.901 285.991 76.6063C293.724 58.8982 300.52 39.1447 306.377 17.3363H292.798Z" fill="#EC0000"/>
<path d="M143.992 48.7852C143.992 66.9757 153.524 77.3758 167.822 77.3758C175.4 77.3758 180.06 74.3417 183.089 69.5758L183.74 76.0782H194.681V21.9263C188.395 19.7604 182.009 18.8921 174.208 18.8921C154.175 18.8921 143.992 29.7215 143.992 48.7852ZM182.766 63.7293C179.626 66.1123 175.834 67.6269 171.179 67.6269C160.567 67.6269 156.124 59.8317 156.124 48.7852C156.124 36.6533 161.864 29.0703 174.208 29.0703C177.566 29.0703 180.277 29.2874 182.766 29.7215V63.7293Z" fill="#EC0000"/>
<path fill-rule="evenodd" clip-rule="evenodd" d="M8.1474 25.8765C5.68726 28.4042 3.7095 31.5686 2.22859 35.3698C0.742864 39.1758 0 43.604 0 48.6545C0 52.9718 0.578856 56.9418 1.74139 60.5597C2.8991 64.1824 4.67426 67.3323 7.06204 69.9998C9.45465 72.6722 12.4936 74.7561 16.1887 76.2563C19.8837 77.7565 24.2299 78.509 29.2274 78.509C31.181 78.509 33.1009 78.3981 34.9822 78.1762C36.8635 77.9591 38.6242 77.6842 40.2498 77.3561C41.8802 77.0281 43.3274 76.6615 44.596 76.2563C45.8647 75.8559 46.8584 75.47 47.582 75.1034C47.582 75.1034 48.3393 72.5372 48.7107 69.3486C49.0339 66.628 49.0339 63.1259 49.0339 63.1259C47.5096 63.7868 42.242 65.5185 39.5986 66.1022C36.9551 66.6907 34.0416 66.985 30.853 66.985C25.4214 66.985 21.2778 65.7211 18.4173 63.1935C15.5519 60.6706 13.9408 57.1058 13.5838 52.4943H51.0599C51.1323 51.7611 51.1853 50.941 51.2239 50.0245C51.2577 49.1128 51.277 48.2879 51.277 47.5547C51.277 37.8251 49.087 30.5074 44.707 25.6016C40.3221 20.7006 34.22 18.2501 26.4007 18.2501C23.0674 18.2501 19.8113 18.8917 16.6228 20.17C13.4343 21.4531 10.6124 23.3537 8.1474 25.8765ZM35.1582 33.2454C36.1374 34.4513 36.8803 35.8792 37.3868 37.5241C37.8933 39.1738 38.1441 40.9104 38.1441 42.7386H13.702C13.919 41.0599 14.3194 39.4102 14.8983 37.799C15.4771 36.1927 16.2923 34.7649 17.3439 33.5203C18.3907 32.2758 19.6786 31.2724 21.1981 30.5006C22.7176 29.7336 24.57 29.3477 26.5236 29.3477C28.4772 29.3477 30.1608 29.695 31.5741 30.3945C32.9875 31.0891 34.179 32.0394 35.1582 33.2454Z" fill="#EC0000"/>
<path d="M64.9453 52.4708C65.0341 49.4523 65.478 45.9899 66.0107 42.7938H91.0466C90.8691 45.9899 90.5139 49.186 90.07 52.4708H64.9453Z" fill="#EC0000"/>
</svg>
