<?xml version="1.0" ?><!DOCTYPE svg  PUBLIC '-//W3C//DTD SVG 1.1//EN'
    'http://www.w3.org/Graphics/SVG/1.1/DTD/svg11.dtd'>
<svg xmlns:xlink="http://www.w3.org/1999/xlink" enable-background="new 0 0 32 32" height="32px" version="1.1" viewBox="0 0 32 32" width="32px"
     xml:space="preserve" xmlns="http://www.w3.org/2000/svg"><g id="ball"/>
    <g id="wistle"/>
    <g id="pitch"/>
    <g id="goal"/>
    <g id="socks"/>
    <g id="shoe"/>
    <g id="jersey"/>
    <g id="bottle"/>
    <g id="shorts"/>
    <g id="corner"/>
    <g id="winner"/>
    <g id="trophy"/>
    <g id="substitution"/>
    <g id="medal_award"/>
    <g id="strategy"/>
    <g id="card"/>
    <g id="gloves"/>
    <g id="stadium"/>
    <g id="keeper"/>
    <g id="time"/>
    <g id="horns"/>
    <g id="flag"/>
    <g id="referee"/>
    <g id="player"/>
    <g id="injury"/>
    <g id="supporter"/>
    <g id="coach"/>
    <g id="cone"/>
    <g id="captain"/>
    <g id="match"/>
    <g id="score"/>
    <g id="celender"/>
    <g id="grass"/>
    <g id="game"/>
    <g id="subsitutions"/>
    <g id="bench"><path d="M30.286,25.036c-2.265-0.954-3.549-2.257-3.923-3.981c-0.96-4.417,4.313-10.117,4.367-10.174   c0.249-0.266,0.333-0.647,0.22-0.994c-0.113-0.347-0.407-0.604-0.765-0.672c-0.508-0.096-1.016-0.144-1.509-0.144   c-3.786,0-6.317,2.733-7.894,5.431C19.461,4.86,9.442,1.103,9.323,1.06C8.914,0.912,8.451,1.047,8.186,1.395   C7.921,1.744,7.914,2.224,8.167,2.581c4.699,6.592,4.922,12.386,4.649,15.215c-0.816-0.97-2.184-2.661-4.464-5.607   c-0.455-0.677-0.992-1.375-1.597-2.073C6.402,9.708,5.788,9.654,5.369,9.995c-0.419,0.34-0.492,0.953-0.165,1.382   c0,0,0.629,0.826,1.523,1.981c1.593,2.397,2.064,4.562,1.4,6.436c-1.285,3.623-6.371,5.235-6.422,5.251   c-0.473,0.146-0.768,0.616-0.694,1.105C1.086,26.638,1.505,27,2,27h28c0.007-0.001,0.013,0,0.02,0c0.552,0,1-0.448,1-1   C31.02,25.54,30.709,25.152,30.286,25.036z M6.25,25c1.512-1.036,3.044-2.518,3.76-4.529c0.279-0.784,0.417-1.594,0.416-2.427   c2.092,2.567,2.395,2.699,2.636,2.804c0.259,0.113,0.556,0.11,0.813-0.007c0.258-0.118,0.454-0.339,0.539-0.61   c0.098-0.313,2.111-7.024-2.659-15.702c3.501,2.217,8.482,6.927,6.855,15.226c-0.104,0.532,0.234,1.05,0.764,1.168   c0.527,0.115,1.056-0.208,1.188-0.733c0.021-0.087,2.147-8.343,7.375-9.068c-1.713,2.257-4.362,6.507-3.529,10.354   c0.295,1.362,0.984,2.54,2.06,3.525H6.25z"/>
        <path d="M30,29h-8c-0.552,0-1,0.448-1,1s0.448,1,1,1h8c0.552,0,1-0.448,1-1S30.552,29,30,29z"/>
        <path d="M19,29h-2c-0.552,0-1,0.448-1,1s0.448,1,1,1h2c0.552,0,1-0.448,1-1S19.552,29,19,29z"/>
        <path d="M14,29H2c-0.552,0-1,0.448-1,1s0.448,1,1,1h12c0.552,0,1-0.448,1-1S14.552,29,14,29z"/></g></svg>
